<svg width="200" height="200" viewBox="50 0 100 100" xmlns="http://www.w3.org/2000/svg">
  <g id="right-half">
    <path d="M 50 5 A 45 45 0 0 1 50 95 L 50 5" fill="white" stroke="#333" stroke-width="2"/>
    <path d="M 50 5 A 45 45 0 0 1 95 50 L 50 50 L 50 5" fill="#EF5350" />
    <path d="M 95 50 A 45 45 0 0 1 50 95 L 50 50 L 95 50" fill="white" />
    <rect x="50" y="47" width="45" height="6" fill="#333" />
    <path d="M 50 38 A 12 12 0 0 1 50 62" fill="#333" />
    <path d="M 50 44 A 6 6 0 0 1 50 56" fill="white" />
  </g>
</svg>